<svg xmlns="http://www.w3.org/2000/svg" width="124" height="72"><g fill="#FFF" fill-rule="evenodd"><path stroke="#5BB9F8" stroke-width="16" d="M78.41 50.76c-1.122 1.63-2.644 3.332-4.107 3.332-2.588 0-3.71-2.267-4.187-3.446-.358.407-3.227 3.446-6.93 3.446-1.65 0-4.064-.746-5.08-3.436-1.876 1.418-5.218 3.436-9.046 3.436-4.107 0-5.08-2.557-5.08-4.738 0-3.39 2.506-13.585 2.506-13.585s-4.806 2.018-6.455 2.018c-2.288 0-3.39-4.436-3.39-4.525 0-.083.05-.163.138-.197 1.337-.52 11.112-3.98 11.112-3.98s1.85-7.464 2.117-8.418c.266-.954 1.588-3 3.202-3.59 1.054-.386 2.702-.894 3.625-.893.4 0 .684.107.684.337 0 .22-2.473 11.102-2.473 11.102s5.072-1.218 6.967-1.218c1.442 0 2.205.915 1.42 2.096a51.538 51.538 0 0 1-2.25 3.13c-.507.635-.862.73-2.134.98-1.684.334-5.537 1.344-5.537 1.344s-3.073 11.51-3.073 13.45c0 1.104.327 2.388 1.658 2.388 1.27 0 3.76-1.527 5.542-2.742.323-8.995 7.046-14.93 12.31-14.93 1.71 0 1.082 1.695 2.99 1.695.162 0 1.056-.022 1.22-.022.743 0 1.6.12 1.6 2.073 0 2.824-1.563 7.464-1.563 10.363 0 2.092.274 3.555 1.033 3.555 1.31 0 2.778-1.943 3.808-3.633 1.775-9.784 6.616-27.58 6.616-29.54.865-.428 6.284-1.503 6.067 2.99-.215 4.495-3.513 12.297-4 15.72 4.434-2.3 10.706-10.16 10.706-10.16s4.437.638 3.03 3.42c-1.404 2.782-10.354 9.664-10.354 9.664s1.962 20.036 13.675 20.036c6.428 0 9.185-2.902 10.39-3.925.314-.267.55-.318.634-.105.245.618.534 2.69-.937 4.37-1.275 1.46-4.33 3.224-10.28 3.224-10.647 0-16.538-8.87-18.052-22.032-1.19 3.85-1.082 10.1-1.297 13.153-.324.588-6.38 3.05-6.813-1.177a7.113 7.113 0 0 1-.01-1.03zm28.705-.963c3.42 0 4.948-1.745 6.41-3.184.583-.033 2.403 1.987 1.552 3.317-.655 1.025-4.242 4.162-8.857 4.162-7.282 0-9.112-6.513-8.115-11.11 1.24-5.718 6.807-10.46 11.213-10.83 3.588-.3 5.825 1.728 6.23 2.85.4 1.104.35 3.66-.653 5.506-3.135 5.766-10.878 4.698-10.878 4.698s-.93 4.59 3.098 4.59zm4.55-12.456c.2-1.296.27-2.535-.456-2.51-2.973.094-6.298 5.936-6.608 8.538 4.44.184 6.793-4.27 7.063-6.027zM70.71 36c0 1.77-.138 13.722-5.974 13.722C59.626 49.722 66.35 36 70.71 36zM34.96 25.81c-3.38 0-3.59-1.796-3.59-1.796s3.956-3.047 3.956-5.933c0-1.505-1.073-5.655-7.188-5.655-8.488 0-13.125 4.137-13.125 11.633 0 8.604 24.71 11.604 24.71 22.73C39.725 58.688 27.773 64 17.19 64 11.654 64 8 60.626 8 55.248c0-6.325 2.917-12.793 10.178-12.793 2.82 0 3.234 2.53 3.234 3.09 0 0-7.286 2.086-7.286 9.674 0 1.394 1.398 3.942 4.814 3.942 3.415 0 13.565-2.485 13.565-11.854 0-8.627-24.498-9.908-24.498-23.384C8.007 8.754 22.74 8 28.293 8c6.642 0 13.346 3.066 13.346 9.718 0 5.79-3.3 8.092-6.678 8.092z"/><path d="M78.41 50.76c-1.122 1.63-2.644 3.332-4.107 3.332-2.588 0-3.71-2.267-4.187-3.446-.358.407-3.227 3.446-6.93 3.446-1.65 0-4.064-.746-5.08-3.436-1.876 1.418-5.218 3.436-9.046 3.436-4.107 0-5.08-2.557-5.08-4.738 0-3.39 2.506-13.585 2.506-13.585s-4.806 2.018-6.455 2.018c-2.288 0-3.39-4.436-3.39-4.525 0-.083.05-.163.138-.197 1.337-.52 11.112-3.98 11.112-3.98s1.85-7.464 2.117-8.418c.266-.954 1.588-3 3.202-3.59 1.054-.386 2.702-.894 3.625-.893.4 0 .684.107.684.337 0 .22-2.473 11.102-2.473 11.102s5.072-1.218 6.967-1.218c1.442 0 2.205.915 1.42 2.096a51.538 51.538 0 0 1-2.25 3.13c-.507.635-.862.73-2.134.98-1.684.334-5.537 1.344-5.537 1.344s-3.073 11.51-3.073 13.45c0 1.104.327 2.388 1.658 2.388 1.27 0 3.76-1.527 5.542-2.742.323-8.995 7.046-14.93 12.31-14.93 1.71 0 1.082 1.695 2.99 1.695.162 0 1.056-.022 1.22-.022.743 0 1.6.12 1.6 2.073 0 2.824-1.563 7.464-1.563 10.363 0 2.092.274 3.555 1.033 3.555 1.31 0 2.778-1.943 3.808-3.633 1.775-9.784 6.616-27.58 6.616-29.54.865-.428 6.284-1.503 6.067 2.99-.215 4.495-3.513 12.297-4 15.72 4.434-2.3 10.706-10.16 10.706-10.16s4.437.638 3.03 3.42c-1.404 2.782-10.354 9.664-10.354 9.664s1.962 20.036 13.675 20.036c6.428 0 9.185-2.902 10.39-3.925.314-.267.55-.318.634-.105.245.618.534 2.69-.937 4.37-1.275 1.46-4.33 3.224-10.28 3.224-10.647 0-16.538-8.87-18.052-22.032-1.19 3.85-1.082 10.1-1.297 13.153-.324.588-6.38 3.05-6.813-1.177a7.113 7.113 0 0 1-.01-1.03zm28.705-.963c3.42 0 4.948-1.745 6.41-3.184.583-.033 2.403 1.987 1.552 3.317-.655 1.025-4.242 4.162-8.857 4.162-7.282 0-9.112-6.513-8.115-11.11 1.24-5.718 6.807-10.46 11.213-10.83 3.588-.3 5.825 1.728 6.23 2.85.4 1.104.35 3.66-.653 5.506-3.135 5.766-10.878 4.698-10.878 4.698s-.93 4.59 3.098 4.59zm4.55-12.456c.2-1.296.27-2.535-.456-2.51-2.973.094-6.298 5.936-6.608 8.538 4.44.184 6.793-4.27 7.063-6.027zM70.71 36c0 1.77-.138 13.722-5.974 13.722C59.626 49.722 66.35 36 70.71 36zM34.96 25.81c-3.38 0-3.59-1.796-3.59-1.796s3.956-3.047 3.956-5.933c0-1.505-1.073-5.655-7.188-5.655-8.488 0-13.125 4.137-13.125 11.633 0 8.604 24.71 11.604 24.71 22.73C39.725 58.688 27.773 64 17.19 64 11.654 64 8 60.626 8 55.248c0-6.325 2.917-12.793 10.178-12.793 2.82 0 3.234 2.53 3.234 3.09 0 0-7.286 2.086-7.286 9.674 0 1.394 1.398 3.942 4.814 3.942 3.415 0 13.565-2.485 13.565-11.854 0-8.627-24.498-9.908-24.498-23.384C8.007 8.754 22.74 8 28.293 8c6.642 0 13.346 3.066 13.346 9.718 0 5.79-3.3 8.092-6.678 8.092z"/></g></svg>